<?xml version="1.0" encoding="UTF-8" standalone="no"?>
<!-- Uploaded to: SVG Repo, www.svgrepo.com, Generator: SVG Repo Mixer Tools -->

<svg
   fill="#000000"
   version="1.1"
   id="Layer_1"
   viewBox="0 0 24 24"
   xml:space="preserve"
   sodipodi:docname="telegram-alt-svgrepo-com.svg"
   inkscape:version="1.4.2 (f4327f4, 2025-05-13)"
   xmlns:inkscape="http://www.inkscape.org/namespaces/inkscape"
   xmlns:sodipodi="http://sodipodi.sourceforge.net/DTD/sodipodi-0.dtd"
   xmlns="http://www.w3.org/2000/svg"
   xmlns:svg="http://www.w3.org/2000/svg"><defs
   id="defs1" /><sodipodi:namedview
   id="namedview1"
   pagecolor="#ffffff"
   bordercolor="#000000"
   borderopacity="0.25"
   inkscape:showpageshadow="2"
   inkscape:pageopacity="0.0"
   inkscape:pagecheckerboard="0"
   inkscape:deskcolor="#d1d1d1"
   inkscape:zoom="35.625"
   inkscape:cx="11.985965"
   inkscape:cy="12"
   inkscape:window-width="1858"
   inkscape:window-height="1057"
   inkscape:window-x="-8"
   inkscape:window-y="-8"
   inkscape:window-maximized="1"
   inkscape:current-layer="Layer_1" />
<style
   type="text/css"
   id="style1">
	.st0{fill:none;}
</style>
<path
   d="M19.2,4.4L2.9,10.7c-1.1,0.4-1.1,1.1-0.2,1.3l4.1,1.3l1.6,4.8c0.2,0.5,0.1,0.7,0.6,0.7c0.4,0,0.6-0.2,0.8-0.4  c0.1-0.1,1-1,2-2l4.2,3.1c0.8,0.4,1.3,0.2,1.5-0.7l2.8-13.1C20.6,4.6,19.9,4,19.2,4.4z M17.1,7.4l-7.8,7.1L9,17.8L7.4,13l9.2-5.8  C17,6.9,17.4,7.1,17.1,7.4z"
   id="path1"
   style="fill:#ffffff;fill-opacity:1" />
<rect
   y="0"
   class="st0"
   width="24"
   height="24"
   id="rect1" />
</svg>
